# xmcd
#
# Track frame offsets:
#	150
#	13252
#	26227
#	41597
#	53385
#	67477
#	82355
#	99572
#	112265
#
# Disc length: 1695
#
# Revision: 2
# Processed by: cddbd v1.5.1PL0 Copyright (c) Steve Scherf et al.
# Submitted via: audiograbber 1.83.01
# Normalized: r1:TDELIM( - )
#
DISCID=84069d09
DTITLE=Various Artist - Country's Greatest Hits Rodeo Days Vol. 12
DYEAR=1991
DGENRE=Country
TTITLE0=Vince Gill - Riding the Rodeo
TTITLE1=Michael Martin Murphy - Cowboy Pride
TTITLE2=Lee Greenwood - Mornin' Ride
TTITLE3=Johnny Rodriguez - It's Hard To Be A Cowboy These Days
TTITLE4=Leon Everette - Midnight Rodeo
TTITLE5=Ronnie Milsap - Cowboys and Clowns
TTITLE6=Billy "Crash" Craddock - (You Say You're) A Real Cowboy
TTITLE7=Moe Bandy - I'm An Old Cowhand
TTITLE8=Bellamy Brothers - Dancin' Cowboys
EXTD=
EXTT0=
EXTT1=
EXTT2=
EXTT3=
EXTT4=
EXTT5=
EXTT6=
EXTT7=
EXTT8=
PLAYORDER=
